<!-- Created with Inkscape (http://www.inkscape.org/) -->
<svg width="32" height="32" version="1.1" viewBox="0 0 32 32" xmlns="http://www.w3.org/2000/svg">
  <path d="m4 13v-8h2v-2h4v1h2v1h1v4h3v-6h1v-1h6v1h1v3h1v5h3v1h1v4h1v4h-1v4h-1v1h-2v1h-1v1h-3v2h-5v1h-8v-1h-2v-1h-1v-2h-2v-1h-1v-1h-1v-2h-1v-6h1v-2h1v-1z" fill="#414141"/>
  <path d="m18 3v1h-1v6h-5v-4h-1v-1h-2v-1h-2v2h-2v8h-1v1h-1v2h-1v4h1v2h1v1h1v1h2v2h1v1h2v1h6v-1h5v-2h3v-1h1v-1h2v-1h1v-4h1v-2h-1v-4h-1v-1h-3v-5h-1v-3h-1v-1zm0 11h6v6h-2v-1h-1v-4h-3zm-9 1h3v6h-2v-1h-1v-3h-3v-1h3zm8 7h2v1h-2z" fill="#fdfdfd"/>
</svg>
