<svg xmlns="http://www.w3.org/2000/svg" xmlns:xlink="http://www.w3.org/1999/xlink" viewBox="0 0 24 96">
<defs>
	<symbol id="1" viewBox="0 0 24 24">
	<path d="M16,21v1h-2v-1H16z"/>
	<path d="M18,20v1h-2v-1H18z"/>
	<path d="M19,19v1h-1v-1H19z"/>
	<path d="M19,19h1v-3h-1V19z"/>
	<path d="M18,14v2h1v-2H18z"/>
	<path d="M17,10v4h1v-4H17z"/>
	<path d="M12,7v1h4v2h1V8h1V4h-2v1h-1v1h-1v1H12z"/>
	<path d="M14,20h2v-3h1v-2h-1v1h-1v3h-1V20z"/>
	<path d="M15,15v1h-1v-1H15z"/>
	<path d="M14,20v1H9v-1H14z"/>
	<path d="M9,19v1H7v-1H9z"/>
	<path d="M6,1v6h1v5H6v2H5v4h1v1h1v-4h2v-2h2V9h1V8h-1V5h-1V3H9V2H8V1H6z"/>
	</symbol>
	<symbol id="2" viewBox="0 0 24 24">
	<path d="M11,7v1h4v1h1v3h1V4h-2v2h-1v1H11z"/>
	<path d="M17,12v3h1v-3H17z"/>
	<path d="M18,15v3h1v-3H18z"/>
	<path d="M18,18v1h-1v-1H18z"/>
	<path d="M17,19v1h-2v-1H17z"/>
	<path d="M15,22h-1v-1h-2v-2h1v-1h1v-2h1v3h-1v1h1V22z"/>
	<path d="M15,15v1h1v-1H15z"/>
	<path d="M14,15v1h-1v-1H14z"/>
	<path d="M14,22v1h-2v-1H14z"/>
	<path d="M12,21v1h-1v-1H12z"/>
	<path d="M11,20v1H9v-1H11z"/>
	<path d="M9,19v1H8v-1H9z"/>
	<path d="M5,1v5h1v2h1v3H6v2H5v4h1v2h2v-1H7v-1h1v-1H7v-1h1v-1h1v-1h2v-3h-1V9h1V8h-1V6H9V4H8V2H7V1H5z"/>
	</symbol>
	<symbol id="3" viewBox="0 0 24 24">
	<path d="M16,10v2h1v-2H16z"/>
	<path d="M17,12v2h1v-2H17z"/>
	<path d="M18,14v4h1v-4H18z"/>
	<path d="M18,18v1h-1v-1H18z"/>
	<path d="M17,19v1h-3v-1H17z"/>
	<path d="M14,18v1h-1v-1H14z"/>
	<path d="M15,18h-1v-2h1V18z"/>
	<path d="M15,15v1h1v-1H15z"/>
	<path d="M14,15v1h-1v-1H14z"/>
	<path d="M13,19v1h-1v-1H13z"/>
	<path d="M13,20v1h1v-1H13z"/>
	<path d="M13,22v-1h-1v-1H9v1h1v1H13z"/>
	<path d="M9,19v1H7v-1H9z"/>
	<path d="M5,1h2v1h1v1h1v2h1v2h4V5h1V4h2v4h-1v2h-1V9h-1V8h-3v1h-1v1h1v3H9v1H7v3H6v1h1v1H5v-2H4v-3h1v-1h1v-2h1V7H6V5H5
		V1z"/>
	</symbol>
	<symbol id="4" viewBox="0 0 24 24">
	<path d="M11,6v1h3v1h1v1h1V7h1V3h-2v1h-1v2H11z"/>
	<path d="M16,9v3h2v-1h-1V9H16z"/>
	<path d="M18,12v1h1v-1H18z"/>
	<path d="M19,13v4h1v-4H19z"/>
	<path d="M19,17v1h-1v-1H19z"/>
	<path d="M18,18v1h-3v-1H18z"/>
	<path d="M13,18h2v-3h1v-2h-1v1h-1v3h-1V18z"/>
	<path d="M14,13v1h-1v-1H14z"/>
	<path d="M15,20h-3v-1H8v-1h5v1h2V20z"/>
	<path d="M8,17v1H6v-1H8z"/>
	<path d="M5,1h2v1h1v1h1v3h1v1h1v1h-1v2h1v2H8v1H7v2H6v2H5v-1H4v-3h1v-1h1v-2h1V7H6V6H5V1z"/>
	</symbol>
</defs>
<use x="0" y="0"  width="24" height="24" xlink:href="#1"></use>
<use x="0" y="24" width="24" height="24" xlink:href="#2"></use>
<use x="0" y="48" width="24" height="24" xlink:href="#3"></use>
<use x="0" y="72" width="24" height="24" xlink:href="#4"></use>
</svg>
