<svg xmlns="http://www.w3.org/2000/svg" xmlns:xlink="http://www.w3.org/1999/xlink" xml:space="preserve" style="fill-rule:evenodd;clip-rule:evenodd;stroke-linecap:round;stroke-linejoin:round;stroke-miterlimit:1.5" viewBox="0 0 500 500">
  <path d="M87 119c11-35 64-53 95-36s45 65 51 78 13 11 14 0-2-49 14-78 58-51 95-21 40 89 43 116c1 6 11 12 19 17 11 7 28 26 36 40 17 29 20 80 5 114s-38 56-67 73-60 31-104 37-91 6-124-6-69-28-93-60-34-75-25-117c7-32 17-45 27-55 3-3 10-9 11-13 5-17-8-55 3-89Z" style="fill:#fdf6e3;stroke:#586e75;stroke-width:20px"/>
  <path d="M200 260c-3-5-43 3-57 6s-53 10-56 15c-2 4-1 20 4 23 4 3 31-5 38-7 0 9 1 25 4 37s6 25 15 34 28 11 37-6c8-15 5-28 5-43s-2-22-4-32c3-3 15 0 18-7 2-4-1-14-4-20Zm107 98c-5-3-24-1-29 4-3 3-3 10 2 12s22 0 27-4 3-10 0-12Zm120-115c-4-3-38-4-54-4s-58-1-61 4-2 19 0 22c3 4 26 1 33 2 0 10-1 26 1 39s2 26 11 35 26 16 38 1 10-24 11-39-1-29-2-38c6-1 20 2 23-1s4-18 0-21Z" style="fill:#586e75"/>
</svg>
